<svg width="98" height="96" viewBox="0 0 98 96" fill="none" xmlns="http://www.w3.org/2000/svg">
<path d="M45.0918 15.9219C46.1149 14.5455 47.9952 15.1851 49.4538 15.046C51.0715 14.7332 52.0877 16.0818 53.1315 17.055C57.2585 21.1632 63.5908 22.8106 69.1903 21.2674C68.3607 24.3955 67.4551 27.5305 65.8928 30.3806C63.2382 35.4063 59.1458 39.4659 54.7768 43.011C55.1847 41.4678 55.8207 39.8899 55.5441 38.2633C55.1778 34.6347 51.5554 31.6804 47.9468 32.1462C44.2 32.2504 41.2275 35.9277 41.2758 39.5771C41.3657 41.9197 42.9211 43.7896 44.4627 45.3884C44.2415 46.6048 44.0618 47.8352 43.8613 49.0517C36.8792 51.7905 29.3994 53.3337 21.892 53.0695C19.7628 47.863 18.7051 42.295 18.0207 36.7271C18.076 34.1481 18.083 31.5692 18 28.9973C18.1106 27.2942 18.2627 25.5981 18.4563 23.9089C20.9587 22.901 23.3299 21.5316 25.9153 20.7461C27.9961 21.0519 29.987 21.9348 32.1231 21.8791C37.0382 21.8096 41.8012 19.5852 45.0918 15.9219Z" fill="#3AFFA3"/>
<path d="M72.0594 21.08C74.3269 22.0462 76.463 23.5755 79 23.6937C78.8963 24.7642 78.8134 25.8416 78.7719 26.9191C79.2696 34.4264 78.7788 42.0798 76.4215 49.2674C75.5159 52.6388 73.6563 55.6348 72.5986 58.9505C72.5641 59.0548 72.4949 59.2495 72.4604 59.3468C70.4625 61.3209 69.2389 63.8999 67.3863 65.9922C62.3329 72.3387 55.6896 77.1698 48.6246 81C37.8819 75.6406 28.5909 67.0349 23.2956 56.1283C29.0679 55.9546 34.9093 55.3498 40.3774 53.4034C40.6954 53.1671 41.3245 52.6874 41.6425 52.4511C41.6909 52.4372 41.7877 52.4164 41.843 52.4094L43.5021 52.4233C43.4191 54.5921 41.7255 58.1372 44.6012 59.1521C47.401 59.027 50.892 60.2157 53.194 58.2346L53.3254 58.1234L53.3461 58.0538C54.39 54.745 52.6617 51.2902 52.6133 47.9119C54.4107 46.8553 56.1251 45.6458 57.5353 44.0887C60.2314 41.8365 62.6993 39.3479 64.9253 36.63C69.0454 32.5287 71.1538 26.7522 72.0594 21.08Z" fill="#3AFFA3"/>
</svg>
