<svg width="97" height="96" viewBox="0 0 97 96" fill="none" xmlns="http://www.w3.org/2000/svg">
<path d="M49.3242 11C57.0708 11.3238 64.7191 14.0294 70.8066 18.8623C79.3282 25.4587 84.6358 35.9346 85 46.6992V49.3242C84.682 56.938 82.0742 64.4654 77.3799 70.4951C70.8008 79.1898 60.2041 84.6357 49.3066 85H46.6758C38.802 84.6762 31.0381 81.878 24.9043 76.9121C16.5505 70.3042 11.3643 59.9499 11 49.3125V46.6758C11.3296 38.3915 14.434 30.246 19.8682 23.9619C26.4877 16.1515 36.4722 11.3527 46.6992 11H49.3242ZM47.0459 24.915C46.5314 27.1003 45.977 29.2805 45.4277 31.4658C42.7337 30.8357 40.0682 30.1181 37.3857 29.4648C37.0389 30.8697 36.6856 32.2748 36.3271 33.6797C38.0037 34.2405 40.9699 34.1365 41.0684 36.4893C39.7618 42.519 38.1026 48.4855 36.6631 54.4863C36.1196 56.8277 33.4078 55.2322 31.8584 55.001C31.1993 56.5041 30.546 58.0077 29.9043 59.5166C32.5752 60.2335 35.2695 60.8516 37.9346 61.5742C37.3854 63.7825 36.8304 65.9909 36.2812 68.1992C37.5994 68.5519 38.9233 68.8702 40.2588 69.165C40.7964 66.9855 41.3338 64.8114 41.8945 62.6377C42.9582 62.9152 44.0223 63.1932 45.0859 63.4707C44.5483 65.6444 43.9938 67.8127 43.4678 69.9922C44.78 70.3217 46.098 70.6511 47.416 70.9863C47.9768 68.7895 48.5031 66.5807 49.0928 64.3896C53.0182 65.0487 57.7763 65.6958 60.9502 62.7012C62.9676 60.5043 64.0891 57.3824 63.748 54.3994C63.4646 52.0698 61.5857 50.3871 59.626 49.335C63.9503 48.3637 65.9565 42.8315 63.8926 39.1084C62.3548 36.4375 59.3139 35.2986 56.6025 34.2002C57.1344 32.0265 57.6946 29.8583 58.2207 27.6846C56.9085 27.3435 55.5905 27.0142 54.2783 26.6963C53.7234 28.8178 53.2142 30.9508 52.665 33.0781C51.5899 32.8238 50.5147 32.552 49.4453 32.2803C49.954 30.1531 50.4976 28.0375 51.0352 25.916C49.717 25.546 48.3814 25.2099 47.0459 24.915ZM45.375 49.04C48.6241 49.8263 52.3302 50.3064 54.7236 52.8906C56.4983 54.7117 55.5267 58.2388 53.0293 58.8516C49.7398 59.6782 46.369 58.6781 43.1836 57.8398C43.8947 54.903 44.6408 51.9711 45.375 49.04ZM48.3535 37.0273C50.8914 37.5592 53.58 38.0906 55.6611 39.7324C57.5109 41.2587 57.1749 44.7397 54.874 45.6357C52.1224 46.7512 49.1336 45.6588 46.3936 45.0518C46.9832 42.3578 47.7003 39.704 48.3535 37.0273Z" fill="#3AFFA3"/>
</svg>
