<svg width="98" height="96" viewBox="0 0 98 96" fill="none" xmlns="http://www.w3.org/2000/svg">
<path d="M15.9072 14.9614C38.2739 14.9157 60.6329 14.9538 82.9996 14.9385C82.9843 36.9014 82.9919 58.8643 82.9996 80.8272C66.1789 80.8958 49.3658 80.9567 32.5527 81.0253C30.6406 81.3376 29.5207 79.6007 28.2942 78.4809C24.2109 74.2681 20.0591 70.1238 15.9072 65.9796V14.9614ZM48.9392 24.5678C48.4059 26.7694 47.865 28.9634 47.3241 31.165C44.5359 30.5099 41.7553 29.809 38.9747 29.131C38.6472 30.5099 38.3196 31.8964 38.0072 33.2829C39.5766 34.0675 42.4486 33.8161 42.7304 36.0254C42.2657 39.6973 41.0011 43.2168 40.1784 46.8202C39.3861 49.5779 39.0433 52.5033 37.8244 55.1239C36.5293 55.9847 34.7924 55.0477 33.3221 55.2077C32.4994 56.5408 31.9356 58.0111 31.3033 59.4433C34.0611 60.1137 36.8264 60.7765 39.5842 61.4392C39.0128 63.6713 38.4339 65.9111 37.8701 68.1431C39.2185 68.4783 40.5669 68.8135 41.9229 69.1411C42.4791 66.9471 43.0276 64.7531 43.5761 62.5667C44.7188 62.8257 45.8539 63.0848 46.989 63.3514C46.4024 65.5378 45.8234 67.7318 45.2673 69.9258C46.6157 70.2838 47.9641 70.6343 49.3201 70.9847C49.8838 68.7602 50.4476 66.5357 51.0189 64.3189C54.5765 64.7607 58.477 65.4463 61.7832 63.6561C64.8762 61.7744 66.4303 57.8816 66.1408 54.3544C65.8741 52.0157 63.8706 50.5454 62.1565 49.2046C65.7218 47.8105 67.9996 43.8187 66.7655 40.0706C65.577 36.5739 61.8137 35.2255 58.7436 33.8542C59.315 31.6983 59.8787 29.5348 60.4348 27.3789C59.0941 27.0132 57.7457 26.6628 56.3973 26.3047C55.8488 28.453 55.3003 30.6089 54.7518 32.7572C53.6243 32.5211 52.5044 32.2773 51.377 32.0411C51.9255 29.8623 52.4816 27.6912 53.0377 25.5124C51.6664 25.1925 50.3028 24.8725 48.9392 24.5678Z" fill="#3AFFA3"/>
<path d="M50.3254 36.665C52.9689 37.3811 55.94 37.8001 58.0197 39.7504C59.8176 41.4492 59.1243 44.8316 56.7094 45.5553C53.8907 46.3705 50.973 45.4487 48.1924 44.8697C48.9085 42.1348 49.6017 39.3999 50.3254 36.665Z" fill="#3AFFA3"/>
<path d="M47.2405 48.7856C50.6077 49.7227 54.5691 50.1036 56.9992 52.907C58.6067 54.8192 57.5782 58.0187 55.1861 58.6891C51.7733 59.5957 48.2461 58.5444 44.917 57.7521C45.6712 54.7582 46.433 51.7643 47.2405 48.7856Z" fill="#3AFFA3"/>
</svg>
