<svg width="97" height="96" viewBox="0 0 97 96" fill="none" xmlns="http://www.w3.org/2000/svg">
<path d="M42.421 11.4071C51.7685 9.99107 61.6025 12.3054 69.3005 17.7795C78.5953 24.1941 84.5485 35.1211 84.9398 46.3863C85.8597 61.6461 76.1526 76.7157 61.9198 82.2743C52.2232 86.29 40.8454 85.8462 31.4872 81.0907C21.262 76.071 13.6169 66.0423 11.6606 54.8088C9.79958 45.3718 11.925 35.2374 17.3495 27.3116C23.0173 18.8151 32.3543 12.9817 42.421 11.4071ZM31.1912 24.4689C30.7576 27.7871 30.7999 31.1371 31.2123 34.4554C34.8816 34.5293 38.5614 34.5082 42.2412 34.5082C42.2412 46.7245 42.2412 58.9408 42.2412 71.1571C46.1008 71.6643 50.0026 71.6749 53.8622 71.1465C53.8622 58.9302 53.8516 46.7245 53.8622 34.5082C57.468 34.5082 61.0844 34.5082 64.6902 34.5188C65.3035 31.1688 65.6313 27.7237 64.7325 24.4054C53.5556 24.4689 42.3787 24.342 31.1912 24.4689Z" fill="#3AFFA3"/>
</svg>
